<svg width="13" height="16" viewBox="0 0 13 16" fill="none" xmlns="http://www.w3.org/2000/svg">
<path d="M6.59995 0C5.93755 0 5.39995 0.5376 5.39995 1.2V1.75625C3.3305 2.28968 1.79995 4.16384 1.79995 6.4V11.2L0.199951 12.8V13.6H5.21558C5.0747 13.8431 5.00034 14.119 4.99995 14.4C4.99995 14.8243 5.16852 15.2313 5.46858 15.5314C5.76864 15.8314 6.1756 16 6.59995 16C7.0243 16 7.43126 15.8314 7.73132 15.5314C8.03138 15.2313 8.19995 14.8243 8.19995 14.4C8.19909 14.1189 8.12418 13.843 7.98276 13.6H13V12.8L11.4 11.2V6.4C11.4 4.16384 9.8694 2.28968 7.79995 1.75625V1.2C7.79995 0.5376 7.26235 0 6.59995 0ZM6.59995 3.2C8.36475 3.2 9.79995 4.6352 9.79995 6.4V11.2V11.8625L9.93745 12H3.26245L3.39995 11.8625V11.2V6.4C3.39995 4.6352 4.83515 3.2 6.59995 3.2Z" fill="#54575D"/>
</svg>
