<svg width="30" height="30" viewBox="0 0 30 30" fill="none" xmlns="http://www.w3.org/2000/svg">
<g clip-path="url(#clip0)">
<path fill-rule="evenodd" clip-rule="evenodd" d="M14.9455 21.8182C20.9703 21.8182 25.8546 16.934 25.8546 10.9091C25.8546 8.82152 25.2682 6.87089 24.2511 5.21294C25.1967 4.78473 25.8546 3.83282 25.8546 2.72727C25.8546 1.22104 24.6335 0 23.1273 0C22.0218 0 21.0698 0.657816 20.6416 1.6034C18.9837 0.58637 17.033 0 14.9455 0C8.92054 0 4.03638 4.88416 4.03638 10.9091C4.03638 16.934 8.92054 21.8182 14.9455 21.8182ZM14.9455 16.3636C11.933 16.3636 9.49092 13.9215 9.49092 10.9091C9.49092 7.89663 11.933 5.45455 14.9455 5.45455C17.9579 5.45455 20.4 7.89663 20.4 10.9091C20.4 13.9215 17.9579 16.3636 14.9455 16.3636Z" fill="url(#paint0_linear)"/>
<path fill-rule="evenodd" clip-rule="evenodd" d="M25.9069 21.0546C25.9069 20.4255 25.0656 20.1279 24.6199 20.5717C23.6173 21.57 22.461 22.4109 21.1886 23.0592C18.9479 24.201 16.435 24.7007 13.928 24.5035C11.6387 24.3232 9.43567 23.5682 7.52115 22.313C7.21884 22.1148 6.81032 22.1782 6.59783 22.4707L4.1612 25.8244C3.94872 26.1169 4.01293 26.5272 4.31251 26.7296C7.04296 28.5737 10.2078 29.682 13.5 29.9412C17.0099 30.2174 20.5279 29.5176 23.6649 27.9192C24.3427 27.5739 24.9969 27.1896 25.6247 26.7689C25.8025 26.6497 25.9069 26.4484 25.9069 26.2343V21.0546Z" fill="#E887FF"/>
</g>
<defs>
<linearGradient id="paint0_linear" x1="14.9455" y1="0" x2="14.9455" y2="21.8182" gradientUnits="userSpaceOnUse">
<stop stop-color="#5C88FF"/>
<stop offset="1" stop-color="#E887FF"/>
</linearGradient>
<clipPath id="clip0">
<rect width="30" height="30" fill="white"/>
</clipPath>
</defs>
</svg>
