<svg width="8" height="8" viewBox="0 0 8 8" fill="none" xmlns="http://www.w3.org/2000/svg">
<path d="M3.55556 1.77778C3.55556 2.75962 2.75962 3.55556 1.77778 3.55556C0.795938 3.55556 0 2.75962 0 1.77778C0 0.795938 0.795938 0 1.77778 0C2.75962 0 3.55556 0.795938 3.55556 1.77778ZM0.888889 1.77778C0.888889 2.2687 1.28686 2.66667 1.77778 2.66667C2.2687 2.66667 2.66667 2.2687 2.66667 1.77778C2.66667 1.28686 2.2687 0.888889 1.77778 0.888889C1.28686 0.888889 0.888889 1.28686 0.888889 1.77778Z" fill="#3E4248"/>
<path d="M7.99989 1.77778C7.99989 2.75962 7.20395 3.55556 6.22211 3.55556C5.24027 3.55556 4.44434 2.75962 4.44434 1.77778C4.44434 0.795938 5.24027 0 6.22211 0C7.20395 0 7.99989 0.795938 7.99989 1.77778ZM5.33322 1.77778C5.33322 2.2687 5.73119 2.66667 6.22211 2.66667C6.71303 2.66667 7.111 2.2687 7.111 1.77778C7.111 1.28686 6.71303 0.888889 6.22211 0.888889C5.73119 0.888889 5.33322 1.28686 5.33322 1.77778Z" fill="#3E4248"/>
<path d="M7.99989 6.22221C7.99989 7.20405 7.20395 7.99998 6.22211 7.99998C5.24027 7.99998 4.44434 7.20405 4.44434 6.22221C4.44434 5.24037 5.24027 4.44443 6.22211 4.44443C7.20395 4.44443 7.99989 5.24037 7.99989 6.22221ZM5.33322 6.22221C5.33322 6.71313 5.73119 7.11109 6.22211 7.11109C6.71303 7.11109 7.111 6.71313 7.111 6.22221C7.111 5.73129 6.71303 5.33332 6.22211 5.33332C5.73119 5.33332 5.33322 5.73129 5.33322 6.22221Z" fill="#3E4248"/>
<path d="M3.55556 6.22221C3.55556 7.20405 2.75962 7.99998 1.77778 7.99998C0.795938 7.99998 0 7.20405 0 6.22221C0 5.24037 0.795938 4.44443 1.77778 4.44443C2.75962 4.44443 3.55556 5.24037 3.55556 6.22221ZM0.888889 6.22221C0.888889 6.71313 1.28686 7.11109 1.77778 7.11109C2.2687 7.11109 2.66667 6.71313 2.66667 6.22221C2.66667 5.73129 2.2687 5.33332 1.77778 5.33332C1.28686 5.33332 0.888889 5.73129 0.888889 6.22221Z" fill="#3E4248"/>
</svg>
