<svg width="10" height="10" viewBox="0 0 10 10" fill="none" xmlns="http://www.w3.org/2000/svg">
<path d="M1.11111 0C0.503854 0 0 0.503854 0 1.11111V3.33333C0 3.94059 0.503854 4.44444 1.11111 4.44444H3.33333C3.94059 4.44444 4.44444 3.94059 4.44444 3.33333V1.11111C4.44444 0.503854 3.94059 0 3.33333 0H1.11111ZM6.66667 0C6.05941 0 5.55556 0.503854 5.55556 1.11111V3.33333C5.55556 3.94059 6.05941 4.44444 6.66667 4.44444H8.88889C9.49615 4.44444 10 3.94059 10 3.33333V1.11111C10 0.503854 9.49615 0 8.88889 0H6.66667ZM1.11111 1.11111H3.33333V3.33333H1.11111V1.11111ZM6.66667 1.11111H8.88889V3.33333H6.66667V1.11111ZM1.11111 5.55556C0.503854 5.55556 0 6.05941 0 6.66667V8.88889C0 9.49615 0.503854 10 1.11111 10H3.33333C3.94059 10 4.44444 9.49615 4.44444 8.88889V6.66667C4.44444 6.05941 3.94059 5.55556 3.33333 5.55556H1.11111ZM6.66667 5.55556C6.05941 5.55556 5.55556 6.05941 5.55556 6.66667V8.88889C5.55556 9.49615 6.05941 10 6.66667 10H8.88889C9.49615 10 10 9.49615 10 8.88889V6.66667C10 6.05941 9.49615 5.55556 8.88889 5.55556H6.66667ZM1.11111 6.66667H3.33333V8.88889H1.11111V6.66667ZM6.66667 6.66667H8.88889V8.88889H6.66667V6.66667Z" fill="#54575D"/>
</svg>
