<svg width="10" height="10" viewBox="0 0 10 10" fill="none" xmlns="http://www.w3.org/2000/svg">
<path d="M1.11111 0C0.498333 0 0 0.498333 0 1.11111V3.33333C0 3.94611 0.498333 4.44444 1.11111 4.44444H3.33333C3.94611 4.44444 4.44444 3.94611 4.44444 3.33333V1.11111C4.44444 0.498333 3.94611 0 3.33333 0H1.11111ZM6.66667 0C6.05389 0 5.55556 0.498333 5.55556 1.11111V3.33333C5.55556 3.94611 6.05389 4.44444 6.66667 4.44444H8.88889C9.50167 4.44444 10 3.94611 10 3.33333V1.11111C10 0.498333 9.50167 0 8.88889 0H6.66667ZM1.11111 5.55556C0.498333 5.55556 0 6.05389 0 6.66667V8.88889C0 9.50167 0.498333 10 1.11111 10H3.33333C3.94611 10 4.44444 9.50167 4.44444 8.88889V6.66667C4.44444 6.05389 3.94611 5.55556 3.33333 5.55556H1.11111ZM6.66667 5.55556C6.05389 5.55556 5.55556 6.05389 5.55556 6.66667V8.88889C5.55556 9.50167 6.05389 10 6.66667 10H8.88889C9.50167 10 10 9.50167 10 8.88889V6.66667C10 6.05389 9.50167 5.55556 8.88889 5.55556H6.66667Z" fill="black"/>
</svg>
