<svg width="10" height="8" viewBox="0 0 10 8" fill="none" xmlns="http://www.w3.org/2000/svg">
<path d="M0.731707 0.341492C0.537646 0.341492 0.351534 0.418582 0.214312 0.555804C0.0770904 0.693025 0 0.879138 0 1.0732C0 1.26726 0.0770904 1.45337 0.214312 1.59059C0.351534 1.72782 0.537646 1.80491 0.731707 1.80491C0.925768 1.80491 1.11188 1.72782 1.2491 1.59059C1.38632 1.45337 1.46341 1.26726 1.46341 1.0732C1.46341 0.879138 1.38632 0.693025 1.2491 0.555804C1.11188 0.418582 0.925768 0.341492 0.731707 0.341492ZM2.68293 0.585394V1.561H10V0.585394H2.68293ZM0.731707 3.26832C0.537646 3.26832 0.351534 3.34541 0.214312 3.48263C0.0770904 3.61985 0 3.80597 0 4.00003C0 4.19409 0.0770904 4.3802 0.214312 4.51742C0.351534 4.65465 0.537646 4.73174 0.731707 4.73174C0.925768 4.73174 1.11188 4.65465 1.2491 4.51742C1.38632 4.3802 1.46341 4.19409 1.46341 4.00003C1.46341 3.80597 1.38632 3.61985 1.2491 3.48263C1.11188 3.34541 0.925768 3.26832 0.731707 3.26832ZM2.68293 3.51222V4.48783H10V3.51222H2.68293ZM0.731707 6.19515C0.537646 6.19515 0.351534 6.27224 0.214312 6.40946C0.0770904 6.54668 0 6.7328 0 6.92686C0 7.12092 0.0770904 7.30703 0.214312 7.44425C0.351534 7.58147 0.537646 7.65857 0.731707 7.65857C0.925768 7.65857 1.11188 7.58147 1.2491 7.44425C1.38632 7.30703 1.46341 7.12092 1.46341 6.92686C1.46341 6.7328 1.38632 6.54668 1.2491 6.40946C1.11188 6.27224 0.925768 6.19515 0.731707 6.19515ZM2.68293 6.43905V7.41466H10V6.43905H2.68293Z" fill="black"/>
</svg>
