<svg width="10" height="10" viewBox="0 0 10 10" fill="none" xmlns="http://www.w3.org/2000/svg">
<path d="M5.5 0.500004C5.43374 0.499067 5.36796 0.511308 5.30648 0.536015C5.24499 0.560722 5.18903 0.597402 5.14185 0.643924C5.09466 0.690446 5.0572 0.745883 5.03162 0.807011C5.00605 0.86814 4.99288 0.933742 4.99288 1C4.99288 1.06627 5.00605 1.13187 5.03162 1.193C5.0572 1.25413 5.09466 1.30956 5.14185 1.35608C5.18903 1.40261 5.24499 1.43929 5.30648 1.46399C5.36796 1.4887 5.43374 1.50094 5.5 1.5C5.83333 1.5 5.86236 1.59289 5.92773 1.72364C5.99311 1.85438 6 2 6 2V8C6 8 5.9931 8.14563 5.92773 8.27637C5.86236 8.40711 5.83333 8.5 5.5 8.5C5.43374 8.49907 5.36796 8.51131 5.30648 8.53601C5.24499 8.56072 5.18903 8.5974 5.14185 8.64392C5.09466 8.69045 5.0572 8.74588 5.03162 8.80701C5.00605 8.86814 4.99288 8.93374 4.99288 9C4.99288 9.06627 5.00605 9.13187 5.03162 9.193C5.0572 9.25413 5.09466 9.30956 5.14185 9.35608C5.18903 9.40261 5.24499 9.43929 5.30648 9.46399C5.36796 9.4887 5.43374 9.50094 5.5 9.5C5.94293 9.5 6.25644 9.30608 6.5 9.07715C6.74356 9.30608 7.05707 9.5 7.5 9.5C7.56626 9.50094 7.63204 9.4887 7.69352 9.46399C7.75501 9.43929 7.81097 9.40261 7.85815 9.35608C7.90534 9.30956 7.9428 9.25413 7.96838 9.193C7.99395 9.13187 8.00712 9.06627 8.00712 9C8.00712 8.93374 7.99395 8.86814 7.96838 8.80701C7.9428 8.74588 7.90534 8.69045 7.85815 8.64392C7.81097 8.5974 7.75501 8.56072 7.69352 8.53601C7.63204 8.51131 7.56626 8.49907 7.5 8.5C7.16667 8.5 7.13764 8.40711 7.07227 8.27637C7.00689 8.14563 7 8 7 8V2C7 2 7.00689 1.85438 7.07227 1.72364C7.13764 1.59289 7.16667 1.5 7.5 1.5C7.56626 1.50094 7.63204 1.4887 7.69352 1.46399C7.75501 1.43929 7.81097 1.40261 7.85815 1.35608C7.90534 1.30956 7.9428 1.25413 7.96838 1.193C7.99395 1.13187 8.00712 1.06627 8.00712 1C8.00712 0.933742 7.99395 0.86814 7.96838 0.807011C7.9428 0.745883 7.90534 0.690446 7.85815 0.643924C7.81097 0.597402 7.75501 0.560722 7.69352 0.536015C7.63204 0.511308 7.56626 0.499067 7.5 0.500004C7.05707 0.500004 6.74356 0.693933 6.5 0.922856C6.25644 0.693933 5.94293 0.500004 5.5 0.500004ZM1 3C0.453469 3 0 3.45347 0 4V6C0 6.54654 0.453469 7 1 7H4.5C4.56626 7.00094 4.63204 6.9887 4.69352 6.96399C4.75501 6.93929 4.81097 6.90261 4.85815 6.85608C4.90534 6.80956 4.9428 6.75413 4.96838 6.693C4.99395 6.63187 5.00712 6.56627 5.00712 6.5C5.00712 6.43374 4.99395 6.36814 4.96838 6.30701C4.9428 6.24588 4.90534 6.19045 4.85815 6.14392C4.81097 6.0974 4.75501 6.06072 4.69352 6.03601C4.63204 6.01131 4.56626 5.99907 4.5 6H1V4H4.5C4.56626 4.00094 4.63204 3.9887 4.69352 3.96399C4.75501 3.93929 4.81097 3.90261 4.85815 3.85608C4.90534 3.80956 4.9428 3.75413 4.96838 3.693C4.99395 3.63187 5.00712 3.56627 5.00712 3.5C5.00712 3.43374 4.99395 3.36814 4.96838 3.30701C4.9428 3.24588 4.90534 3.19045 4.85815 3.14392C4.81097 3.0974 4.75501 3.06072 4.69352 3.03601C4.63204 3.01131 4.56626 2.99907 4.5 3H1ZM8.5 3C8.43374 2.99907 8.36796 3.01131 8.30648 3.03601C8.24499 3.06072 8.18903 3.0974 8.14185 3.14392C8.09466 3.19045 8.0572 3.24588 8.03162 3.30701C8.00605 3.36814 7.99288 3.43374 7.99288 3.5C7.99288 3.56627 8.00605 3.63187 8.03162 3.693C8.0572 3.75413 8.09466 3.80956 8.14185 3.85608C8.18903 3.90261 8.24499 3.93929 8.30648 3.96399C8.36796 3.9887 8.43374 4.00094 8.5 4H9V6H8.5C8.43374 5.99907 8.36796 6.01131 8.30648 6.03601C8.24499 6.06072 8.18903 6.0974 8.14185 6.14392C8.09466 6.19045 8.0572 6.24588 8.03162 6.30701C8.00605 6.36814 7.99288 6.43374 7.99288 6.5C7.99288 6.56627 8.00605 6.63187 8.03162 6.693C8.0572 6.75413 8.09466 6.80956 8.14185 6.85608C8.18903 6.90261 8.24499 6.93929 8.30648 6.96399C8.36796 6.9887 8.43374 7.00094 8.5 7H9C9.54653 7 10 6.54654 10 6V4C10 3.45347 9.54653 3 9 3H8.5Z" fill="black"/>
</svg>
