<svg width="10" height="10" viewBox="0 0 10 10" fill="none" xmlns="http://www.w3.org/2000/svg">
<path d="M9.42193 4.99528C9.42193 7.75409 7.31276 9.99055 4.71097 9.99055C2.10917 9.99055 0 7.75409 0 4.99528C0 2.23646 2.10917 0 4.71097 0C7.31276 0 9.42193 2.23646 9.42193 4.99528ZM1.41329 4.99528C1.41329 6.92645 2.88971 8.49197 4.71097 8.49197C6.53222 8.49197 8.00864 6.92645 8.00864 4.99528C8.00864 3.06411 6.53222 1.49858 4.71097 1.49858C2.88971 1.49858 1.41329 3.06411 1.41329 4.99528Z" fill="#696C71"/>
<rect width="1.41474" height="2.83798" rx="0.707368" transform="matrix(-0.645555 0.763714 -0.724859 -0.688898 10 8.91956)" fill="#696C71"/>
</svg>
