<svg width="10" height="10" viewBox="0 0 10 10" fill="none" xmlns="http://www.w3.org/2000/svg">
<path d="M8 0C7.1775 0 6.5 0.677495 6.5 1.5C6.5 1.59548 6.5109 1.68856 6.52832 1.7793L2.96094 3.86035C2.69927 3.63893 2.36604 3.5 2 3.5C1.1775 3.5 0.5 4.1775 0.5 5C0.5 5.8225 1.1775 6.5 2 6.5C2.36604 6.5 2.69927 6.36107 2.96094 6.13965L6.52832 8.21973C6.51078 8.31076 6.5 8.40419 6.5 8.5C6.5 9.3225 7.1775 10 8 10C8.8225 10 9.5 9.3225 9.5 8.5C9.5 7.6775 8.8225 7 8 7C7.63374 7 7.3008 7.13966 7.03906 7.36133L3.47168 5.2793C3.4891 5.18856 3.5 5.09548 3.5 5C3.5 4.90452 3.4891 4.81144 3.47168 4.7207L7.03906 2.63965C7.30073 2.86107 7.63396 3 8 3C8.8225 3 9.5 2.3225 9.5 1.5C9.5 0.677495 8.8225 0 8 0ZM8 1C8.28206 1 8.5 1.21794 8.5 1.5C8.5 1.78206 8.28206 2 8 2C7.71794 2 7.5 1.78206 7.5 1.5C7.5 1.21794 7.71794 1 8 1ZM2 4.5C2.28206 4.5 2.5 4.71794 2.5 5C2.5 5.28206 2.28206 5.5 2 5.5C1.71794 5.5 1.5 5.28206 1.5 5C1.5 4.71794 1.71794 4.5 2 4.5ZM8 8C8.28206 8 8.5 8.21794 8.5 8.5C8.5 8.78206 8.28206 9 8 9C7.71794 9 7.5 8.78206 7.5 8.5C7.5 8.21794 7.71794 8 8 8Z" fill="black"/>
</svg>
