<svg width="329" height="232" viewBox="0 0 329 232" fill="none" xmlns="http://www.w3.org/2000/svg">
<g opacity="0.8" clip-path="url(#clip0_7452_7108)">
<path d="M168.027 231.508C177.922 231.508 185.944 223.482 185.944 213.58C185.944 203.679 177.922 195.652 168.027 195.652C158.132 195.652 150.11 203.679 150.11 213.58C150.11 223.482 158.132 231.508 168.027 231.508Z" fill="#9581FF"/>
<path d="M275.064 230.501C285.087 227.489 295.744 224.348 303.693 217.187C310.797 210.788 315.592 201.017 312.65 191.42C309.713 181.844 300.916 175.458 291.834 172.282C286.683 170.481 281.294 169.481 275.907 168.696C270.051 167.843 264.169 167.143 258.29 166.471C234.484 163.746 210.589 162.082 186.605 161.478C174.77 161.179 162.938 161.187 151.101 161.358C140.531 161.512 129.398 161.508 119.591 157.013C111.965 153.517 105.044 147.156 102.919 138.798C100.467 129.15 104.991 119.325 111.481 112.338C114.901 108.655 118.899 105.555 123.024 102.704C127.498 99.6121 132.128 96.7388 136.859 94.0567C146.176 88.7767 155.917 84.2832 165.981 80.6228C170.945 78.8165 175.983 77.2582 181.065 75.8206C185.356 74.6066 189.661 73.391 193.808 71.737C201.825 68.5397 209.45 63.1237 211.489 54.2447C213.421 45.8296 210.163 36.6943 204.453 30.4428C197.846 23.2103 187.884 20.0398 178.333 19.5268C167.611 18.9509 157.135 21.6361 147.057 25.044C136.308 28.6788 125.791 32.8581 114.815 35.8022C103.931 38.7188 92.8363 40.7825 81.6317 41.9744C76.1466 42.5589 70.4958 43.2188 64.9782 42.7714C60.3539 42.3964 55.7532 41.0355 52.3451 37.7516C49.4229 34.9358 47.6821 31.0659 48.2806 26.982C48.3893 26.2403 49.5154 26.5556 49.4074 27.2928C48.6788 32.2641 52.0559 36.8449 56.2174 39.1915C61.027 41.9034 66.8796 41.9071 72.2343 41.597C83.8448 40.8953 95.3768 39.2272 106.711 36.61C117.847 34.0647 128.586 30.4261 139.313 26.5393C149.501 22.8478 159.916 19.2449 170.8 18.4454C180.244 17.7516 190.178 19.1283 198.406 24.0667C205.636 28.4069 210.953 35.6449 212.648 43.9508C214.303 52.067 212.01 60.2362 205.87 65.9001C199.513 71.7643 190.796 74.2714 182.673 76.5805C172.37 79.5092 162.288 82.9326 152.529 87.3776C142.637 91.8705 133.15 97.2074 124.173 103.329C115.508 109.254 106.957 116.709 104.217 127.279C102.94 132.203 103.176 137.425 105.312 142.076C107.211 146.211 110.339 149.689 113.983 152.372C122.677 158.774 133.634 160.088 144.135 160.219C155.93 160.366 167.725 159.967 179.523 160.161C203.568 160.556 227.564 162.02 251.51 164.555C257.51 165.19 263.503 165.893 269.488 166.662C274.872 167.354 280.273 168.042 285.566 169.271C294.977 171.457 304.135 175.66 309.985 183.644C312.581 187.105 314.189 191.206 314.638 195.51C315.047 200.002 313.949 204.501 311.919 208.497C307.427 217.34 299.014 222.965 290.079 226.661C285.293 228.64 280.329 230.14 275.374 231.629C274.653 231.845 274.344 230.717 275.064 230.501L275.064 230.501Z" fill="#F2F2F2"/>
<path d="M49.0351 36.4411C54.1978 36.4411 58.3831 32.2533 58.3831 27.0873C58.3831 21.9213 54.1978 17.7334 49.0351 17.7334C43.8724 17.7334 39.6871 21.9213 39.6871 27.0873C39.6871 32.2533 43.8724 36.4411 49.0351 36.4411Z" fill="#F2F2F2"/>
<path d="M113.887 54.1745C119.049 54.1745 123.235 49.9866 123.235 44.8206C123.235 39.6546 119.049 35.4668 113.887 35.4668C108.724 35.4668 104.539 39.6546 104.539 44.8206C104.539 49.9866 108.724 54.1745 113.887 54.1745Z" fill="#F2F2F2"/>
<path d="M168.806 18.7077C173.969 18.7077 178.154 14.5199 178.154 9.35387C178.154 4.18787 173.969 0 168.806 0C163.643 0 159.458 4.18787 159.458 9.35387C159.458 14.5199 163.643 18.7077 168.806 18.7077Z" fill="#F2F2F2"/>
<path d="M203.082 58.4617C208.245 58.4617 212.43 54.2738 212.43 49.1078C212.43 43.9418 208.245 39.754 203.082 39.754C197.919 39.754 193.734 43.9418 193.734 49.1078C193.734 54.2738 197.919 58.4617 203.082 58.4617Z" fill="#F2F2F2"/>
<path d="M156.732 104.452C161.894 104.452 166.079 100.264 166.079 95.0977C166.079 89.9317 161.894 85.7438 156.732 85.7438C151.569 85.7438 147.384 89.9317 147.384 95.0977C147.384 100.264 151.569 104.452 156.732 104.452Z" fill="#F2F2F2"/>
<path d="M97.9172 126.667C103.08 126.667 107.265 122.479 107.265 117.313C107.265 112.147 103.08 107.959 97.9172 107.959C92.7544 107.959 88.5692 112.147 88.5692 117.313C88.5692 122.479 92.7544 126.667 97.9172 126.667Z" fill="#F2F2F2"/>
<path d="M160.237 161.354C165.4 161.354 169.585 157.166 169.585 152C169.585 146.834 165.4 142.647 160.237 142.647C155.074 142.647 150.889 146.834 150.889 152C150.889 157.166 155.074 161.354 160.237 161.354Z" fill="#F2F2F2"/>
<path d="M227.231 180.842C232.394 180.842 236.579 176.654 236.579 171.488C236.579 166.322 232.394 162.134 227.231 162.134C222.068 162.134 217.883 166.322 217.883 171.488C217.883 176.654 222.068 180.842 227.231 180.842Z" fill="#F2F2F2"/>
<path d="M305.52 176.554C310.683 176.554 314.868 172.366 314.868 167.2C314.868 162.034 310.683 157.847 305.52 157.847C300.357 157.847 296.172 162.034 296.172 167.2C296.172 172.366 300.357 176.554 305.52 176.554Z" fill="#F2F2F2"/>
<path d="M166.108 26.504C138.106 26.7019 115.178 49.4716 114.781 77.4889C114.777 77.7476 114.775 79.5665 114.775 81.9454C114.776 85.4334 116.16 88.7785 118.625 91.245C121.09 93.7114 124.433 95.0973 127.919 95.0977H127.919C129.647 95.0973 131.358 94.7562 132.954 94.0939C134.55 93.4317 136 92.4611 137.221 91.2379C138.442 90.0146 139.411 88.5625 140.071 86.9646C140.731 85.3667 141.07 83.6543 141.069 81.9252C141.067 80.3069 141.066 79.1869 141.066 79.1182C141.066 74.7881 142.191 70.5324 144.332 66.7697C146.474 63.0069 149.557 59.8668 153.279 57.6581C157.001 55.4495 161.234 54.2483 165.56 54.1729C169.887 54.0975 174.159 55.1505 177.955 57.2281C181.752 59.3057 184.943 62.3366 187.214 66.0224C189.485 69.7082 190.758 73.9221 190.908 78.2496C191.057 82.577 190.079 86.869 188.068 90.7032C186.057 94.5374 183.084 97.7819 179.44 100.117L179.444 100.123C179.444 100.123 160.738 112.174 155.034 128.705L155.039 128.706C154.036 132.093 153.528 135.607 153.53 139.139C153.53 140.591 153.616 153.295 153.781 163.606C153.838 167.164 155.291 170.556 157.827 173.052C160.362 175.547 163.775 176.945 167.331 176.944H167.331C169.118 176.944 170.887 176.59 172.537 175.904C174.187 175.217 175.684 174.21 176.944 172.942C178.203 171.674 179.2 170.169 179.876 168.514C180.552 166.859 180.895 165.087 180.884 163.299C180.826 153.856 180.795 142.86 180.795 142.062C180.795 131.911 190.582 121.797 198.62 115.202C207.877 107.607 214.538 97.2567 217.214 85.5815C217.806 83.1778 218.132 80.7163 218.187 78.2412C218.187 71.4154 216.837 64.657 214.215 58.3554C211.594 52.0539 207.751 46.3338 202.911 41.5246C198.07 36.7155 192.325 32.9124 186.009 30.3344C179.693 27.7565 172.929 26.4547 166.108 26.504V26.504Z" fill="#9581FF"/>
<path d="M328.536 232H0.463772C0.341005 232 0.223391 231.951 0.136707 231.864C0.0500233 231.777 0.00134277 231.659 0.00134277 231.536C0.00134277 231.413 0.0500233 231.295 0.136707 231.208C0.223391 231.121 0.341005 231.072 0.463772 231.072H328.536C328.659 231.072 328.777 231.121 328.864 231.208C328.951 231.295 329 231.413 329 231.536C329 231.659 328.951 231.777 328.864 231.864C328.777 231.951 328.659 232 328.536 232V232Z" fill="#3F3D56"/>
<path d="M244.78 106.399C251.234 106.399 256.465 101.164 256.465 94.7064C256.465 88.2489 251.234 83.014 244.78 83.014C238.327 83.014 233.095 88.2489 233.095 94.7064C233.095 101.164 238.327 106.399 244.78 106.399Z" fill="#2F2E41"/>
<path d="M223.187 226.882H218.413L216.141 208.451H223.189L223.187 226.882Z" fill="#A0616A"/>
<path d="M215.002 225.516H224.211V231.318H209.203C209.203 230.556 209.353 229.802 209.644 229.098C209.936 228.394 210.363 227.754 210.901 227.216C211.44 226.677 212.079 226.249 212.783 225.958C213.486 225.666 214.24 225.516 215.002 225.516Z" fill="#2F2E41"/>
<path d="M260.19 226.882H255.415L253.143 208.451H260.191L260.19 226.882Z" fill="#A0616A"/>
<path d="M252.004 225.516H261.213V231.318H246.206C246.206 230.556 246.356 229.802 246.647 229.098C246.938 228.394 247.365 227.754 247.904 227.216C248.442 226.677 249.082 226.249 249.785 225.958C250.489 225.666 251.243 225.516 252.004 225.516V225.516Z" fill="#2F2E41"/>
<path d="M243.004 106.467C248.288 106.467 252.571 102.181 252.571 96.8945C252.571 91.6077 248.288 87.3219 243.004 87.3219C237.721 87.3219 233.438 91.6077 233.438 96.8945C233.438 102.181 237.721 106.467 243.004 106.467Z" fill="#A0616A"/>
<path d="M248.706 137.348L252.987 127.507C254.026 125.199 254.324 122.624 253.839 120.139C253.355 117.654 252.111 115.38 250.28 113.632C249.904 113.26 249.504 112.913 249.084 112.592C246.972 110.938 244.369 110.037 241.687 110.031C239.885 110.038 238.104 110.434 236.468 111.193C236.328 111.255 236.192 111.321 236.051 111.387C235.783 111.516 235.518 111.656 235.261 111.801C233.584 112.764 232.157 114.108 231.095 115.725C230.032 117.342 229.365 119.185 229.146 121.108L227.256 136.947C226.781 138.19 209.83 183.089 215.759 217.367C215.822 217.733 216 218.069 216.268 218.326C216.535 218.584 216.878 218.749 217.246 218.797L223.256 219.616C223.695 219.676 224.141 219.567 224.503 219.312C224.865 219.057 225.117 218.673 225.208 218.24L235.292 170.141C235.355 169.843 235.516 169.573 235.75 169.377C235.983 169.181 236.276 169.068 236.581 169.058C236.886 169.048 237.186 169.14 237.432 169.32C237.679 169.5 237.858 169.758 237.94 170.052L252.188 220.633C252.29 221 252.509 221.324 252.812 221.555C253.116 221.786 253.486 221.911 253.867 221.911C253.981 221.91 254.094 221.9 254.206 221.88L261.548 220.465C261.975 220.385 262.356 220.149 262.618 219.802C262.88 219.455 263.002 219.023 262.962 218.591C261.883 206.551 256.15 146.246 248.706 137.348Z" fill="#2F2E41"/>
<path d="M205.826 104.861C205.76 105.43 205.819 106.007 206 106.55C206.18 107.094 206.478 107.592 206.871 108.008C207.264 108.424 207.744 108.749 208.277 108.96C208.809 109.17 209.381 109.262 209.953 109.227L215.3 122.086L219.345 116.086L213.647 104.795C213.525 103.838 213.057 102.959 212.331 102.324C211.605 101.69 210.672 101.344 209.708 101.352C208.744 101.36 207.816 101.722 207.101 102.368C206.385 103.015 205.932 103.902 205.826 104.861L205.826 104.861Z" fill="#A0616A"/>
<path d="M242.474 150.296C243.042 150.228 243.589 150.036 244.075 149.734C244.562 149.431 244.976 149.026 245.289 148.546C245.602 148.066 245.806 147.524 245.887 146.956C245.967 146.389 245.923 145.811 245.756 145.263L257.007 137.063L250.233 134.525L240.588 142.701C239.686 143.042 238.941 143.703 238.493 144.557C238.046 145.411 237.927 146.4 238.159 147.337C238.392 148.273 238.96 149.091 239.755 149.636C240.55 150.182 241.517 150.416 242.474 150.296V150.296Z" fill="#A0616A"/>
<path d="M224.133 130.658C223.702 130.658 223.271 130.616 222.848 130.532C221.825 130.337 220.865 129.893 220.054 129.239C219.242 128.586 218.604 127.742 218.195 126.784L210.703 117.643C210.545 117.45 210.429 117.225 210.365 116.983C210.3 116.742 210.288 116.49 210.329 116.243C210.37 115.996 210.463 115.761 210.603 115.554C210.742 115.346 210.923 115.171 211.136 115.039L216.466 111.738C216.663 111.616 216.882 111.534 217.11 111.497C217.339 111.461 217.572 111.47 217.797 111.524C218.022 111.578 218.234 111.676 218.421 111.812C218.608 111.949 218.767 112.121 218.887 112.319L224.167 121.023L234.279 113.545C235.084 113.123 236.014 113.005 236.899 113.212C237.784 113.419 238.566 113.938 239.1 114.673C239.635 115.409 239.887 116.313 239.81 117.219C239.734 118.126 239.334 118.975 238.684 119.61L228.591 128.823C227.405 129.999 225.803 130.659 224.133 130.658Z" fill="#2F2E41"/>
<path d="M251.456 144.406C251.443 144.406 251.429 144.406 251.415 144.405C251.169 144.399 250.928 144.342 250.705 144.236C250.483 144.131 250.286 143.98 250.126 143.793L245.387 138.261C245.225 138.073 245.106 137.853 245.036 137.614C244.966 137.376 244.947 137.126 244.981 136.88C245.015 136.635 245.101 136.399 245.233 136.188C245.364 135.978 245.539 135.798 245.745 135.661L254.619 129.741L246.58 120.071C246.112 119.291 245.941 118.368 246.097 117.472C246.253 116.576 246.726 115.766 247.429 115.19C248.133 114.614 249.02 114.31 249.929 114.335C250.837 114.359 251.707 114.71 252.379 115.323L262.149 124.877C262.918 125.579 263.505 126.459 263.859 127.438C264.214 128.418 264.326 129.47 264.185 130.502C264.044 131.535 263.655 132.518 263.051 133.367C262.447 134.216 261.646 134.905 260.717 135.376L252.732 143.855C252.568 144.029 252.37 144.167 252.151 144.262C251.932 144.357 251.695 144.406 251.456 144.406Z" fill="#2F2E41"/>
<path d="M240.572 124.022C240.496 124.022 240.42 124.017 240.344 124.008C240.014 123.968 239.703 123.834 239.447 123.622C239.19 123.41 239 123.129 238.899 122.812L235.338 111.888C235.249 111.611 235.263 111.312 235.377 111.045C235.491 110.778 235.698 110.562 235.959 110.436L236.075 110.381C236.179 110.331 236.283 110.282 236.389 110.235C238.05 109.464 239.857 109.062 241.687 109.057C244.064 109.061 246.387 109.76 248.372 111.067C248.638 111.244 248.824 111.518 248.889 111.832C248.955 112.145 248.895 112.471 248.723 112.74L242.043 123.212C241.886 123.46 241.669 123.665 241.412 123.807C241.155 123.949 240.866 124.023 240.572 124.022V124.022Z" fill="#E6E6E6"/>
<path d="M253.993 89.4865C256.104 89.4865 257.816 87.7735 257.816 85.6605C257.816 83.5474 256.104 81.8345 253.993 81.8345C251.881 81.8345 250.169 83.5474 250.169 85.6605C250.169 87.7735 251.881 89.4865 253.993 89.4865Z" fill="#2F2E41"/>
<path d="M240.885 81.455C238.199 81.455 235.623 82.5226 233.724 84.423C231.825 86.3234 230.758 88.9008 230.758 91.5884V95.8756H236.028L238.548 91.5884L239.304 95.8756H255.296L251.012 91.5884C251.012 88.9008 249.945 86.3234 248.046 84.423C246.147 82.5226 243.571 81.455 240.885 81.455V81.455Z" fill="#2F2E41"/>
<path d="M255.958 83.0398C256.381 81.7168 257.256 80.5853 258.43 79.8443C259.604 79.1033 261.002 78.8001 262.377 78.9881C264.814 79.3958 266.74 81.3557 267.888 83.5447C269.036 85.7337 269.566 88.1836 270.338 90.532C271.11 92.8804 272.204 95.2415 274.152 96.7617C276.1 98.2818 279.09 98.6942 281.003 97.1304C280.785 98.7601 280.06 100.28 278.931 101.475C277.802 102.669 276.326 103.479 274.712 103.788C273.098 104.098 271.427 103.892 269.937 103.199C268.447 102.507 267.211 101.363 266.406 99.9292C265.397 98.1319 265.136 96.0252 264.837 93.9853C264.537 91.9453 264.148 89.8346 262.943 88.1623C261.737 86.4901 259.481 85.3979 257.566 86.1596L255.958 83.0398Z" fill="#2F2E41"/>
<path d="M131.63 88.8767C128.144 88.8763 124.801 87.4905 122.336 85.024C119.871 82.5575 118.487 79.2124 118.486 75.7244C118.486 73.3455 118.488 71.5267 118.492 71.268C118.602 63.1198 120.653 55.1154 124.474 47.9189C118.196 56.5178 114.745 66.8562 114.597 77.5039C114.593 77.7626 114.591 79.5814 114.591 81.9603C114.592 85.4484 115.976 88.7935 118.441 91.2599C120.906 93.7264 124.249 95.1123 127.735 95.1127V95.1127C130.599 95.1116 133.385 94.175 135.669 92.4451C137.953 90.7153 139.61 88.2868 140.389 85.5286C137.982 87.6881 134.862 88.8806 131.63 88.8767V88.8767Z" fill="#3F3D56"/>
<path d="M166.999 54.2171C171.028 54.4097 174.951 55.578 178.431 57.6219C181.91 59.6657 184.841 62.5239 186.973 65.9511C189.105 69.3783 190.374 73.2721 190.671 77.2981C190.968 81.3241 190.284 85.3621 188.678 89.0653C191.001 86.335 192.709 83.1355 193.684 79.685C194.66 76.2344 194.88 72.614 194.331 69.0704C193.781 65.5268 192.475 62.1435 190.5 59.1511C188.525 56.1586 185.929 53.6274 182.888 51.73C179.847 49.8326 176.433 48.6137 172.879 48.1563C169.324 47.6988 165.713 48.0137 162.291 49.0794C158.869 50.1451 155.717 51.9365 153.05 54.3316C150.383 56.7267 148.263 59.6691 146.836 62.9582C149.303 60.0536 152.404 57.7548 155.9 56.2393C159.396 54.7238 163.193 54.0319 166.999 54.2171V54.2171Z" fill="#3F3D56"/>
<path d="M171.042 170.723C167.486 170.724 164.073 169.326 161.538 166.831C159.003 164.335 157.549 160.943 157.492 157.385C157.327 147.074 157.241 134.37 157.241 132.918C157.239 129.386 157.747 125.872 158.75 122.485L158.745 122.484C159.338 120.784 160.053 119.13 160.885 117.534C158.33 120.942 156.296 124.712 154.85 128.72L154.855 128.721C153.852 132.108 153.344 135.622 153.346 139.154C153.346 140.606 153.432 153.31 153.597 163.621C153.654 167.179 155.108 170.571 157.643 173.067C160.178 175.562 163.591 176.96 167.147 176.959V176.959C170.079 176.958 172.932 176.007 175.278 174.247C177.623 172.486 179.336 170.013 180.157 167.196C177.666 169.47 174.414 170.728 171.042 170.723V170.723Z" fill="#3F3D56"/>
<path d="M49.2875 227.059L54.0624 227.059L56.3344 208.629L49.2864 208.629L49.2875 227.059Z" fill="#FFB8B8"/>
<path d="M63.272 231.496L48.2643 231.496L48.264 225.694L57.4733 225.694C59.0111 225.694 60.486 226.305 61.5735 227.393C62.6609 228.481 63.2719 229.957 63.272 231.496V231.496L63.272 231.496Z" fill="#2F2E41"/>
<path d="M32.1496 227.059L36.9245 227.059L39.1964 208.629L32.1484 208.629L32.1496 227.059Z" fill="#FFB8B8"/>
<path d="M46.134 231.496L31.1264 231.496L31.1261 225.694L40.3354 225.694C41.8732 225.694 43.3481 226.305 44.4355 227.393C45.523 228.481 46.134 229.957 46.134 231.496V231.496L46.134 231.496Z" fill="#2F2E41"/>
<path d="M36.3225 221.391L31.6582 221.146C31.4177 221.133 31.1821 221.073 30.965 220.968C30.748 220.864 30.5538 220.717 30.3937 220.537C30.2337 220.357 30.1109 220.147 30.0325 219.919C29.9542 219.691 29.9218 219.45 29.9372 219.21L35.512 157.449L61.1842 164.38L63.6576 163.705L55.9229 218.38C55.857 218.792 55.6529 219.168 55.3442 219.448C55.0356 219.727 54.6409 219.893 54.2254 219.918L49.1974 220.152C48.9459 220.166 48.6944 220.128 48.4585 220.04C48.2227 219.951 48.0077 219.815 47.8272 219.639C47.6467 219.464 47.5045 219.252 47.4098 219.019C47.315 218.786 47.2696 218.535 47.2766 218.283L48.1876 185.468C48.1918 185.316 48.1392 185.168 48.0399 185.054C47.9407 184.939 47.802 184.865 47.6513 184.848C47.5007 184.83 47.3488 184.87 47.2258 184.959C47.1028 185.047 47.0175 185.179 46.9867 185.328L38.2008 219.942C38.1179 220.353 37.8951 220.722 37.5706 220.987C37.2461 221.251 36.8398 221.395 36.4211 221.394C36.3885 221.394 36.3556 221.393 36.3225 221.391Z" fill="#2F2E41"/>
<path d="M50.1449 106.915C55.4283 106.915 59.7113 102.629 59.7113 97.3421C59.7113 92.0554 55.4283 87.7696 50.1449 87.7696C44.8614 87.7696 40.5784 92.0554 40.5784 97.3421C40.5784 102.629 44.8614 106.915 50.1449 106.915Z" fill="#FFB8B8"/>
<path d="M34.2173 125.466L35.2692 148.175L35.6494 156.437C35.6646 156.797 35.7866 157.144 35.9999 157.434C36.2133 157.724 36.5081 157.943 36.8469 158.064L61.5162 167.007C61.7155 167.081 61.9266 167.118 62.1392 167.116C62.3822 167.117 62.6229 167.069 62.847 166.975C63.0711 166.881 63.274 166.743 63.4436 166.569C63.6131 166.395 63.7458 166.188 63.8338 165.961C63.9218 165.735 63.9633 165.493 63.9557 165.25L62.9443 124.417C62.8779 121.067 61.6455 117.845 59.4595 115.307C57.2736 112.769 54.2711 111.073 50.9697 110.512C50.7311 110.476 50.4883 110.439 50.2455 110.407C48.1984 110.153 46.1204 110.35 44.1578 110.986C42.1952 111.622 40.3957 112.68 38.8858 114.087C37.3224 115.526 36.0939 117.291 35.2872 119.257C34.4805 121.223 34.1152 123.343 34.2173 125.466L34.2173 125.466Z" fill="#CCCCCC"/>
<path d="M73.3007 162.475C72.7172 162.294 72.1841 161.979 71.744 161.555C71.3038 161.131 70.9688 160.61 70.7657 160.033C70.5625 159.457 70.4969 158.841 70.5739 158.234C70.651 157.628 70.8686 157.048 71.2095 156.541L62.8439 145.41L70.0629 144.962L76.9003 155.601C77.6323 156.168 78.1417 156.974 78.3391 157.878C78.5365 158.783 78.4093 159.728 77.9798 160.548C77.5504 161.368 76.8461 162.011 75.9905 162.363C75.1349 162.715 74.1826 162.755 73.3007 162.475H73.3007Z" fill="#FFB8B8"/>
<path d="M67.4188 154.526C67.1972 154.436 66.9956 154.303 66.8257 154.135C66.6558 153.966 66.521 153.766 66.429 153.545L53.8255 123.498C53.5782 122.909 53.4492 122.278 53.4459 121.64C53.4425 121.002 53.5649 120.369 53.8059 119.778C54.047 119.187 54.4021 118.65 54.8509 118.196C55.2997 117.743 55.8334 117.382 56.4215 117.135C57.0097 116.888 57.6407 116.76 58.2785 116.757C58.9163 116.754 59.5484 116.877 60.1387 117.119C60.729 117.36 61.2659 117.716 61.7188 118.165C62.1716 118.615 62.5316 119.149 62.7779 119.738L75.3814 149.785C75.5677 150.231 75.5698 150.732 75.3872 151.179C75.2046 151.626 74.8523 151.982 74.4075 152.17L68.8122 154.52C68.5919 154.613 68.3553 154.662 68.1161 154.663C67.877 154.664 67.6399 154.618 67.4188 154.526L67.4188 154.526Z" fill="#CCCCCC"/>
<path d="M47.0691 153.466L59.1744 130.273C59.4079 129.827 59.8086 129.492 60.2887 129.341C60.7688 129.19 61.2891 129.236 61.7354 129.469L79.3063 138.651C79.752 138.885 80.087 139.286 80.2377 139.766C80.3883 140.247 80.3424 140.767 80.11 141.214L68.0046 164.407C67.7712 164.853 67.3704 165.188 66.8903 165.339C66.4102 165.49 65.89 165.444 65.4437 165.211L47.8728 156.029C47.4271 155.795 47.0921 155.394 46.9414 154.914C46.7908 154.434 46.8367 153.913 47.0691 153.466Z" fill="#3F3D56"/>
<path d="M55.1874 142.87C54.9722 142.298 54.6263 141.784 54.1774 141.369C53.7284 140.955 53.1889 140.651 52.6017 140.482C52.0146 140.313 51.3961 140.284 50.7957 140.397C50.1953 140.51 49.6295 140.761 49.1435 141.132L37.5449 133.433L37.5251 140.67L48.5425 146.872C49.1506 147.569 49.9849 148.031 50.8989 148.174C51.8129 148.318 52.7483 148.135 53.5411 147.658C54.3339 147.18 54.9333 146.439 55.2344 145.564C55.5354 144.688 55.5188 143.735 55.1874 142.87V142.87Z" fill="#FFB8B8"/>
<path d="M40.5228 144.498L31.0437 136.984C30.0182 136.64 29.0917 136.051 28.3435 135.27C27.5953 134.488 27.0479 133.536 26.7482 132.496C26.4485 131.456 26.4056 130.359 26.623 129.298C26.8404 128.238 27.3117 127.246 27.9965 126.408L36.6033 115.122C37.2014 114.39 38.0425 113.899 38.973 113.737C39.9034 113.575 40.861 113.754 41.6707 114.24C42.4804 114.727 43.0881 115.488 43.3827 116.386C43.6773 117.284 43.6392 118.258 43.2753 119.13L36.4653 130.277L46.4731 135.026C46.7058 135.137 46.9125 135.295 47.0794 135.492C47.2463 135.688 47.3697 135.917 47.4414 136.165C47.5132 136.413 47.5316 136.672 47.4954 136.928C47.4593 137.183 47.3695 137.427 47.2319 137.645L43.1921 144.043C43.0556 144.259 42.8752 144.443 42.6627 144.585C42.4502 144.727 42.2104 144.822 41.9587 144.865C41.9487 144.867 41.9386 144.869 41.9286 144.87C41.6813 144.908 41.4289 144.894 41.1871 144.83C40.9453 144.766 40.7192 144.653 40.5228 144.498V144.498Z" fill="#CCCCCC"/>
<path d="M42.9162 103.752C42.8751 103.632 42.8621 103.504 42.8781 103.378C42.8941 103.252 42.9387 103.131 43.0085 103.025C43.0783 102.919 43.1714 102.831 43.2807 102.766C43.3901 102.702 43.5127 102.663 43.6392 102.653C43.8983 102.667 44.1519 102.734 44.3846 102.849C44.6173 102.964 44.8243 103.125 44.9932 103.322C45.3394 103.721 45.7424 104.067 46.1894 104.35C46.6521 104.583 47.2798 104.55 47.5436 104.105C47.7913 103.687 47.6216 103.127 47.4716 102.642C47.09 101.407 46.8764 100.126 46.8368 98.834C46.7936 97.3918 46.9969 95.8867 47.7948 94.7619C48.8246 93.3102 50.666 92.7591 52.4086 92.799C54.1512 92.839 55.8656 93.3773 57.5917 93.7175C58.1876 93.835 58.8881 93.8951 59.2866 93.4329C59.7104 92.9415 59.5548 92.1462 59.3745 91.4827C58.9067 89.7611 58.4105 87.981 57.3237 86.5906C56.1486 85.1458 54.47 84.2001 52.626 83.9441C50.8557 83.7247 49.0586 83.9289 47.3825 84.5398C44.6516 85.4011 42.2487 87.0761 40.495 89.3409C38.6872 91.7495 37.9061 94.7763 38.3223 97.7595C38.729 100.358 40.105 102.705 42.1729 104.328L42.9162 103.752Z" fill="#2F2E41"/>
<path d="M164.08 227.135C161.534 226.026 159.282 224.34 157.499 222.211C155.717 220.081 154.453 217.566 153.808 214.864C153.164 212.162 153.155 209.347 153.784 206.641C154.412 203.936 155.661 201.413 157.431 199.273C155.379 200.772 153.669 202.691 152.415 204.902C151.16 207.113 150.391 209.565 150.156 212.097C149.921 214.628 150.228 217.18 151.054 219.584C151.881 221.988 153.209 224.189 154.95 226.04C156.692 227.891 158.807 229.35 161.155 230.321C163.503 231.291 166.031 231.751 168.57 231.669C171.11 231.588 173.603 230.967 175.884 229.847C178.165 228.728 180.182 227.136 181.801 225.177C179.276 227.024 176.311 228.177 173.201 228.52C170.092 228.864 166.947 228.386 164.08 227.135V227.135Z" fill="#3F3D56"/>
</g>
<defs>
<clipPath id="clip0_7452_7108">
<rect width="329" height="232" fill="white"/>
</clipPath>
</defs>
</svg>
